<svg id="图层_1" data-name="图层 1" xmlns="http://www.w3.org/2000/svg" viewBox="0 0 2947.22 377.44"><title>S-sipeed</title><path d="M1096.7,139.9l-66.4-59.4a26.25,26.25,0,0,0-17.6-6.7H961.6A26.13,26.13,0,0,0,944,80.5L876.6,141a26.19,26.19,0,0,0-8.8,19.5V321a6.53,6.53,0,0,0,6.6,6.6h42.7a6.53,6.53,0,0,0,6.6-6.6h0V149.9a26.16,26.16,0,0,1,26.2-26.2H1031a13.17,13.17,0,0,1,13.1,13.2v25.6a13.14,13.14,0,0,1-13.1,13.1H944.3a6.53,6.53,0,0,0-6.6,6.6h0V219a6.53,6.53,0,0,0,6.6,6.6h68.4a26.13,26.13,0,0,0,17.6-6.7l66.4-59.5a12.91,12.91,0,0,0,1-18.4A10,10,0,0,1,1096.7,139.9Z" transform="translate(-17.78 -11.93)" style="fill:#e34548"/><path d="M1311.3,175.7h-95.2a6.53,6.53,0,0,0-6.6,6.6h0v37a6.53,6.53,0,0,0,6.6,6.6h131.2a3.4,3.4,0,0,0,3.3-3.3h0v-7.4a39.29,39.29,0,0,0-39.3-39.5Z" transform="translate(-17.78 -11.93)" style="fill:#e34548"/><path d="M1344,73.8H1234.2a26.13,26.13,0,0,0-17.6,6.7l-68.2,61.1a26.09,26.09,0,0,0-8.7,19.5v79.2a26.45,26.45,0,0,0,8.7,19.5l68.3,61.1a26.25,26.25,0,0,0,17.6,6.7H1344a6.53,6.53,0,0,0,6.6-6.6h0V284a6.53,6.53,0,0,0-6.6-6.6H1221.7a26.16,26.16,0,0,1-26.2-26.2h0V149.9a26.16,26.16,0,0,1,26.2-26.2H1344a6.53,6.53,0,0,0,6.6-6.6h0V80.3a6.57,6.57,0,0,0-6.6-6.5Z" transform="translate(-17.78 -11.93)" style="fill:#e34548"/><path d="M1571.1,175.7h-95.2a6.53,6.53,0,0,0-6.6,6.6h0v37a6.53,6.53,0,0,0,6.6,6.6h131.2a3.4,3.4,0,0,0,3.3-3.3h0v-7.4A39.16,39.16,0,0,0,1571.1,175.7Z" transform="translate(-17.78 -11.93)" style="fill:#e34548"/><path d="M1603.9,73.8H1494.1a26.13,26.13,0,0,0-17.6,6.7l-68.2,61.1a26.09,26.09,0,0,0-8.7,19.5v79.2a26.45,26.45,0,0,0,8.7,19.5l68.3,61.1a26.25,26.25,0,0,0,17.6,6.7H1604a6.53,6.53,0,0,0,6.6-6.6h0V284a6.53,6.53,0,0,0-6.6-6.6H1481.7a26.16,26.16,0,0,1-26.2-26.2V149.9a26.16,26.16,0,0,1,26.2-26.2H1604a6.53,6.53,0,0,0,6.6-6.6h0V80.3A6.66,6.66,0,0,0,1603.9,73.8Z" transform="translate(-17.78 -11.93)" style="fill:#e34548"/><path d="M1706.8,73.8h-43.6a6.53,6.53,0,0,0-6.6,6.6h0V321.9a5.91,5.91,0,0,0,5.9,5.9h44.2a5.91,5.91,0,0,0,5.9-5.9h0V79.5a5.92,5.92,0,0,0-5.8-5.7Z" transform="translate(-17.78 -11.93)" style="fill:#e34548"/><path d="M1877.6,139.6l-65.9-59.1a26.25,26.25,0,0,0-17.6-6.7H1732a6.53,6.53,0,0,0-6.6,6.6h0v37a6.53,6.53,0,0,0,6.6,6.6h84.8a6.53,6.53,0,0,1,6.6,6.6h0V271.3a6.53,6.53,0,0,1-6.6,6.6H1732a6.53,6.53,0,0,0-6.6,6.6h0v37a6.53,6.53,0,0,0,6.6,6.6h62.1a25.27,25.27,0,0,0,17.4-6.7l66-59.1a26.09,26.09,0,0,0,8.7-19.5V159.5A25,25,0,0,0,1877.6,139.6Z" transform="translate(-17.78 -11.93)" style="fill:#e34548"/><path d="M766.3,73.8H809a6.53,6.53,0,0,1,6.6,6.6v37.1a6.53,6.53,0,0,1-6.6,6.6H766.3a6.53,6.53,0,0,1-6.6-6.6V80.3A6.57,6.57,0,0,1,766.3,73.8Z" transform="translate(-17.78 -11.93)" style="fill:#e34548"/><path d="M812.2,175.7H794.8a35.08,35.08,0,0,0-35.1,35.1V321a6.53,6.53,0,0,0,6.6,6.6H809a6.53,6.53,0,0,0,6.6-6.6h0V179a3.35,3.35,0,0,0-3.4-3.3Z" transform="translate(-17.78 -11.93)" style="fill:#e34548"/><path d="M645,181.4a19.59,19.59,0,0,0-13.9-5.7H573.3a13.14,13.14,0,0,1-13.1-13.1V137a13.3,13.3,0,0,1,13.1-13.2h74.9a42.57,42.57,0,0,0,42.6-42.6h0V77a3.4,3.4,0,0,0-3.3-3.3H586.3a20,20,0,0,0-13.9,5.7l-61,61a13.1,13.1,0,0,0,0,18.5h0l61,61a19.59,19.59,0,0,0,13.9,5.7h58.1a13.14,13.14,0,0,1,13.1,13.1v25.6a13.14,13.14,0,0,1-13.1,13.1H566.3A39.31,39.31,0,0,0,527,316.7v7.6a3.4,3.4,0,0,0,3.3,3.3H631.4a19.38,19.38,0,0,0,13.9-5.9l60.8-61a13.1,13.1,0,0,0,0-18.5h0Z" transform="translate(-17.78 -11.93)" style="fill:#e34548"/><g style="isolation:isolate"><path d="M2038.9,228a217.93,217.93,0,0,0,13.8-17.3c4.8-6.6,9.8-17,14.8-31.1s8-24,9-29.6l1.2-6.9h-18.5c-2.9,0-7.9.4-15.1,1.1V131.7a132.2,132.2,0,0,0,14.8,1.1h49.8a133.76,133.76,0,0,0,14.9-1.1v12.5c-7.4-.7-12.4-1.1-15-1.1h-19.1c-2.3,10.3-4.3,18.5-6.1,24.5s-4.2,12.9-7.2,20.8h21.6c2.5,0,7.9-.4,16.2-1.1-.4,4-.7,7.3-.8,10s-.2,4.7-.2,5.9v59.1c0,1.3,0,3.7.2,7.3a35.33,35.33,0,0,0,.4,6.1l.8,6.4h-13.7c.5-3.7.7-5.9.8-6.7l.3-6.8h-27.5c-.1,5.3-.1,8.6.2,9.9l.9,6.6H2062c.4-2.9.7-5.1.8-6.6l.3-6.7c.2-4.3.3-6.7.3-7.1V215.1c-2.1,3.4-3.7,5.8-4.7,7.5l-3.8,5.5-2.8,4.1A66.18,66.18,0,0,0,2038.9,228Zm35.7,31.8h27.3V198.3h-27.3Zm77.3,6.2c11.1-9.8,18.5-17.5,22.4-23.1l3.8-5.4a351.28,351.28,0,0,0-29.3-27.3,44.41,44.41,0,0,0,7.9-8.2c7.1,6.1,16.4,14.4,28,24.8,2.2-3.5,3.9-6.5,5.3-9.1a132.29,132.29,0,0,0,5.7-13,181.9,181.9,0,0,0,6.2-17.9,156.06,156.06,0,0,0,3.7-15.2l1.1-6.3h-47.9c-3.3,7.9-7.4,16.6-12.4,26s-10.3,18.5-15.9,27.4a73.85,73.85,0,0,0-13.2-5.5,148.41,148.41,0,0,0,12.2-15.7,174.42,174.42,0,0,0,13.9-24.9,200,200,0,0,0,10.9-28.6q4-13.8,4.8-18.3l1.4-7.3,13.4,3.1c3,.7,4.4,1.3,4.4,1.6s-.4.7-1.1,1.2l-2.5,1.3a9.38,9.38,0,0,0-3,3.4,36.37,36.37,0,0,0-3.1,7.7l-6.1,18.9h40.2c3.2,0,9.3-.3,18.4-1-2.4,11.6-3.8,18.7-4.5,21.5s-1.8,6.9-3.4,12.5-3.9,12.4-6.8,20.3-7.9,17.5-15,28.6-13.9,19.8-20.3,26a229.86,229.86,0,0,1-18.4,16.2c-5.8,4.6-15.5,11.2-28.8,19.8a25.66,25.66,0,0,0-1.9-2.8l-4.7-4-4.3-3.6A127.78,127.78,0,0,0,2151.9,266Z" transform="translate(-17.78 -11.93)" style="fill:#606060"/><path d="M2329,188.7c-.3,2.9-.4,5.1-.5,6.5l-.3,5.3q-.3,4.2-.3,5.1V270c1.6.7,2.8,1.2,3.5,1.6s4.6,2.8,11.4,7.3a47.8,47.8,0,0,0,20.8,7.9c7,.8,20,1.4,38.9,1.9s40.3-1.2,64.1-5.2a48.18,48.18,0,0,0-3,6.2,58.21,58.21,0,0,0-2.4,9.6c-17.5,1-36.9,1.5-58.2,1.6-4.9.1-12.4,0-22.4-.3s-18-1.2-23.9-2.9a62.64,62.64,0,0,1-13.6-5.2c-3.2-1.8-7.5-4.6-13-8.3s-9.7-5.6-12.8-5.6c-2.9,0-6.1,1.1-9.7,3.4s-8.2,7.3-13.9,15.1c-1.5-2-2.8-3.8-4-5.3a52.13,52.13,0,0,0-6.2-6,145.21,145.21,0,0,1,16.8-12.3,67.82,67.82,0,0,1,15.9-6.1V200.1h-14.5a114.39,114.39,0,0,0-15.7,1.2V188.7a112.69,112.69,0,0,0,15.7,1.1h10.7C2314.9,189.8,2320.4,189.4,2329,188.7Zm-39.4-51.4a41.46,41.46,0,0,0,5.8-4.6l3.6-4.1c11.8,10.5,21.1,19.7,27.7,27.5a77.45,77.45,0,0,0-9.1,9.1A210,210,0,0,0,2289.6,137.3Zm44.1,121.5a109.43,109.43,0,0,0,24.2-13.6c8-5.9,17.1-15.4,27.1-28.5h-21.5c-3,0-8.2.3-15.4,1,.3-2.3.5-4.1.6-5.2s.2-2.8.4-4.9.2-3.8.2-5.1V185.7c0-.1-.1-1.9-.3-5.5l-.2-4.3-.6-5.4c7.3.7,12.4,1,15.4,1h28.6V152.6h-33.9c-4.8,0-10.7.4-17.8,1.1V141c7.7.8,13.6,1.2,17.8,1.2h33.9v-10l-.3-5.1-.2-5-.6-6.1,16.3,2.6c1.2.2,1.8.5,1.9.9s-.5,1-1.7,1.8c-1.5,1-2.5,3-3,6.1a50.26,50.26,0,0,0-.8,7.7v7.2h37.4a162.54,162.54,0,0,0,16.8-1.2v12.6c-6.7-.7-12.3-1.1-16.8-1.1h-37.4v18.9h32.7c3.2,0,8.3-.3,15.1-1-.3,2.5-.5,4.6-.7,6.2s-.3,3.1-.4,4.4-.1,2.8-.1,4.7v16.8c0,1.8.1,3.6.2,5.4l.4,4.4.5,5.4c-6.8-.7-11.9-1-15.1-1h-32.7v1.6a424.25,424.25,0,0,1,48.2,38.8,54.48,54.48,0,0,0-6.2,6.6l-3,4.3c-7.7-8.1-14.1-14.6-19.2-19.3s-11.8-10.4-19.8-16.9v32.5q0,2.4.3,6.9c.2,3,.4,4.9.5,5.7l.6,5.1h-14.3c.9-8.6,1.3-14.5,1.3-17.8V224.4a259.53,259.53,0,0,1-21.6,24.7,202.53,202.53,0,0,1-24.4,20.7,43.55,43.55,0,0,0-3.9-5C2340.9,263.2,2338.1,261.2,2333.7,258.8Zm26.6-52.4h31.8V181.7h-31.8Zm43.4,0h35.5V181.7h-35.5Z" transform="translate(-17.78 -11.93)" style="fill:#606060"/><path d="M2572.1,182.7h-18.2c-4.3,0-10.3.4-18,1.1V171.5c8.4.6,14.6.9,18.5.9h19V139.1q-11.85,1.65-28.8,3.6c-.4-2-.9-3.8-1.4-5.5s-2-4.3-4.5-8c7.9.9,17.6.6,29.2-.9s19.2-2.8,22.7-4,7.7-3,12.7-5.2l7.2,11c1.3,2.2,1.9,3.4,1.7,3.8s-1.9.4-5-.1-10.7.5-22.6,2.9v35.7h14.5q6.3,0,17.4-.9v12.3c-6.8-.7-12.5-1.1-17.1-1.1h-14.8v10.2c4.8,4.2,10,8.6,15.4,13.1s8.4,7,8.9,7.4l6.4,6c-1.5,1.5-2.9,3-3.9,4.2a40.82,40.82,0,0,0-4.3,7.1c-5-6.8-9.2-11.7-12.6-14.6l-9.8-8.5v75.3c0,1.7.1,4.3.2,8a52.62,52.62,0,0,0,.4,6.1l.8,5.7h-13.9c.4-2.5.7-4.4.8-5.6s.2-3.2.4-6,.2-5.4.2-7.9V209.8c-1.7,3.2-4.6,8.5-8.4,15.7s-7.5,13.7-10.9,19.2-7.1,11.1-10.9,16.8c-1.4-1.1-2.8-2-4-2.9a88.67,88.67,0,0,0-10.5-4.5,126.16,126.16,0,0,0,9.3-8.7c3-3.1,7-8.9,12.1-17.3s8.8-15,11.3-19.9C2563.9,203.3,2567.5,194.8,2572.1,182.7Zm36.6,60.3,16.2-1.4,57.3-7.7V135.1c0-1.7-.1-4.4-.4-8s-.4-6-.5-6.9l-.6-5.3,15,2.8q2.85.6,3,.9c0,.2-.5.8-1.6,1.8a10.22,10.22,0,0,0-3.2,5,27.45,27.45,0,0,0-.7,6v101a236.45,236.45,0,0,0,23.9-4.9l1.1,12.6c-8.5.7-16.8,1.6-25,2.7v41.8c0,.8.1,3.1.2,6.9s.2,5.8.3,6.2l.9,6.9h-14a50.1,50.1,0,0,0,.9-5.5l.2-7.7.3-6.4V244l-53.7,8.4-16.9,3.7Zm15.7-52a48.07,48.07,0,0,0,8.8-8.6c1.3,1.3,6.9,6.7,16.8,16.4s16.4,16.1,19.5,19.2a38.52,38.52,0,0,0-7.1,6.1l-3.1,3.8c-1.9-2.5-3.8-5-5.8-7.5s-6-6.8-12-12.9S2629.8,195.9,2624.4,191Zm2.5-48.7q2.4-2,3.9-3.3a51.36,51.36,0,0,0,4.7-5.5c8.3,7.5,20.8,19,37.7,34.6a44.29,44.29,0,0,0-4.2,3.3,50.87,50.87,0,0,0-5.7,6.7c-2-2.5-4.4-5.5-7.3-9C2652.9,165.5,2643.3,156.6,2626.9,142.3Z" transform="translate(-17.78 -11.93)" style="fill:#606060"/><path d="M2814.1,170.3h-15.4c-.3,0-2.7.1-7,.4s-7.5.5-9.5.8v-12a102.35,102.35,0,0,0,10.5.8l6.1.3h15.4V136.4c0-.5-.1-2.7-.3-6.7l-.3-6.3-.8-7,15.5,1.9c2,.3,3,.7,3.2,1.3s-.4,1.5-1.8,2.9a12.05,12.05,0,0,0-3,4.3,20.89,20.89,0,0,0-1.1,4.9c-.2,1.9-.3,3.3-.3,4.3v24.5h3.5l7.5-.3a49.09,49.09,0,0,0,9.1-.8v12a114.3,114.3,0,0,0-16.6-1.1h-3.5v35.5a90.62,90.62,0,0,0,9.2-5.2,84,84,0,0,0,9-6.3c-.6,5.1-.9,8.3-.9,9.5l-.2,6.8c-5.3,2.6-11,5.4-17,8.6v64.5c0,4.3-.9,7.5-2.5,9.5a18.78,18.78,0,0,1-7.3,5.2c-3.2,1.4-9.5,2.7-19,3.7-1.8-6.7-3.1-10.5-3.8-11.6l-3.3-4.9a99.22,99.22,0,0,0,12.1,1.4c8.5.3,12.7-3.1,12.7-10V225.2a171.46,171.46,0,0,0-26.7,15.1c-3.7-6.3-6-10.1-7-11.3l-2.9-3.5q15.75-3.45,36.6-14.1V170.3Zm80.5,90.7c-2.1-2.3-4.6-5.2-7.4-8.7a79,79,0,0,1-9-14.4c-3.2-6.1-5.8-11.5-7.9-16.2a67.43,67.43,0,0,1-3.9-10.3l-2.1-7.5h-.6a83.2,83.2,0,0,0-11,.9V193a108,108,0,0,0,16.5,1.1h29.1V160.7h-31.7l-6.1.3c-5,.3-8.5.5-10.5.8V149.9a124,124,0,0,0,16.5,1h31.7V133.4q0-1.35-.3-6.3c-.2-3.3-.3-5-.3-5l-.8-7.2,15,1.9c1.9.3,2.9.6,3.1,1.1s-.5,1.5-2,3a10.21,10.21,0,0,0-2.3,3.8,25.92,25.92,0,0,0-.9,4.2,29.34,29.34,0,0,0-.3,4.1v17.9h32.4a103.73,103.73,0,0,0,16.7-1v11.9a64.76,64.76,0,0,0-9.5-.8l-7.2-.3h-32.4v33.4h22.5l5.2-.3c5.3-.3,8.8-.5,10.5-.8-1.2,4.4-2.4,8.4-3.5,12.1s-3.3,9.2-6.5,16.7a137.23,137.23,0,0,1-9.6,18.9,262.44,262.44,0,0,1-15.6,21.3c7.7,6.5,14.6,11.4,20.9,14.7a102.82,102.82,0,0,0,14.4,6.6c3.4,1.1,9.1,2.8,17.3,5.1-5.4,4.8-8.6,7.9-9.4,9.3l-3.2,5.2a241.83,241.83,0,0,1-24.1-13.6,238.3,238.3,0,0,1-25-18.9,140.84,140.84,0,0,1-18,13.2c-7.4,4.7-13.3,8.2-17.6,10.4s-11.6,5.3-21.8,9.2c-5-6.1-7.5-9.2-7.7-9.4L2833,290c3.3-.4,7.1-1,11.4-1.9s11.7-3.6,22-8.4A103.4,103.4,0,0,0,2894.6,261Zm9-7.8,5.7-5.7a66.09,66.09,0,0,0,7.2-10,145.62,145.62,0,0,0,8-14.4,78.94,78.94,0,0,0,5-12.2l2.1-7h-55.9a76.72,76.72,0,0,0,2.1,8.1,83.22,83.22,0,0,0,4.6,10.2c2.4,4.7,5.1,9.5,8,14.2A138.15,138.15,0,0,0,2903.6,253.2Z" transform="translate(-17.78 -11.93)" style="fill:#606060"/></g><rect width="377.44" height="377.44" rx="38.17" style="fill:#e34548"/><polygon points="307.06 247.06 225.43 329.02 103.94 329.02 103.94 274.99 244.7 274.99 244.7 219.14 159.12 219.14 77.16 137.18 159.14 55.22 280.55 55.22 280.55 109.26 139.78 109.26 139.78 165.1 225.1 165.1 307.06 247.06" style="fill:#fff7f0"/><path d="M111.37,77.35a25.77,25.77,0,1,0-27.78,27.78A25.86,25.86,0,0,0,111.37,77.35ZM84.32,89.85A10.49,10.49,0,1,1,96.09,78.08,10.5,10.5,0,0,1,84.32,89.85Z" transform="translate(-17.78 -11.93)" style="fill:#fff7f0"/></svg>